<?xml version="1.0" encoding="utf-8"?>
<!-- Generator: Adobe Illustrator 21.1.0, SVG Export Plug-In . SVG Version: 6.00 Build 0)  -->
<svg version="1.1" id="Layer_1" xmlns="http://www.w3.org/2000/svg" xmlns:xlink="http://www.w3.org/1999/xlink" x="0px" y="0px"
	 viewBox="0 0 1226.9 800" style="enable-background:new 0 0 1226.9 800;" xml:space="preserve">
<style type="text/css">
	.st0{fill:#FFFFFF;}
</style>
<g>
	<g>
		<g>
			<path class="st0" d="M268.9,203.7c-22.9,63.3,28.8,89.2,67.4,117.5c9.8,7.2,19.4,13.5,27.7,18.5c5.4,3.3,10.3,6.2,14.3,8.4
				c4.1,1.9,7,3.7,9.1,5.2c3.1,2.1,5.3,5.2,6.6,8.7l0.9,2.4l4.7,12.8l0,0.1c1.6,4.1,3.3,8.8,5.2,13.9c1.9,5.2,3.9,10.9,5.9,17
				c10.3,30.9,22.5,73.7,31.6,124.7c1.4,8,2.8,16.2,4,24.5v0.1c0.7,4.8-0.4,9.7-3.1,13.6c-15.8,23.6-31.7,45.6-46.4,65l0,0
				l-8.9,10.9l0.6-0.1c-13.1,17-24.9,31.6-34.5,43.1c-13.6,16.4-22.8,26.7-24.5,28.6l-0.1,0.1l-7.8,9.6c-4.1,5.1-11.9,5.1-16,0.1
				l-9-10.8l-0.1-0.1c-5.1-5.8-24-27.2-48.7-58.7l0,0c-5.6-7.1-11.4-14.6-17.5-22.6c-6.1-8-12.4-16.5-18.8-25.4
				c-23.5-32.4-48.5-69.9-70.6-109.1l0,0c-14.4-25.4-27.5-51.6-38.2-77.6l-11.9,12.6c-11.4-21.2-19.8-44.3-24.7-68.6
				c-3.2-16.1-4.9-32.8-4.9-49.8c0-138.7,112.4-251,251-251c5.9,0,11.7,0.2,17.5,0.6c5.3,0.4,10.7,0.9,15.9,1.6v0
				c45.5,6.1,86.9,25.2,120.5,53.2c4.7,3.8,8.9,8.1,12.7,12.7c0.3,0.3,0.6,0.7,0.8,1c3.2,4.3,6.1,8.9,9,13.4
				c5.8,10.6,9.7,22.5,11.1,35.1c-0.4-1.5-1.2-2.9-2.3-4c-16.3-16.7-34-29.1-52.4-37.5l-0.2-0.2c-39.2-18-81.1-17.6-115.7-1.6
				c-18.8,8.7-35.5,22-48.5,39.4C275.1,188.9,271.5,196.4,268.9,203.7z"/>
		</g>
		<g>
			<path class="st0" d="M396.8,636.5c-2.8,3.7-5.6,7.3-8.3,10.8l-0.6,0.1L396.8,636.5z"/>
		</g>
		<g>
			<path class="st0" d="M467.2,384.2c-9.6,2.3-18.2,3.5-25.5,3.5c-8.5,0-15.3-1.6-20-4.8c-6-4-10.9-8.2-14.6-12.4l-0.1-0.1
				c-2.4-2.7-4.3-5.5-5.7-8.2c-0.2-0.4-0.4-0.9-0.6-1.3c-1.4-3.1-2.1-6.2-2.3-9.3c0-0.3,0-0.7,0-1c0-1.8,0.2-3.6,0.6-5.4
				c0.8-3.4,2.2-6.8,4.4-10.2c1.6-2.6,3.4-4.7,4.9-6.5c1.4-1.5,3.5-2.1,5.5-1.5c1.1,0.3,2.2,0.7,3.3,1c1.1,0.4,2.2,0.7,3.2,1.1
				l0.6,0.2c1.3,0.5,2.6,1,3.9,1.5c15.6,6.5,28.1,16.5,37.1,29.7c3,4.5,5.7,9.3,8,14.4c0.3,0.6,0.5,1.2,0.8,1.8
				C472.1,379.9,470.4,383.4,467.2,384.2z"/>
		</g>
	</g>
	<g>
		<path class="st0" d="M571.1,521.1c9.6,8.2,14.4,20.8,14.4,37.7v55.9h-39.9V601c-4.9,10.4-14.8,15.6-29.5,15.6
			c-8.2,0-15.2-1.4-21-4.3c-5.8-2.9-10.1-6.7-13.1-11.6c-3-4.9-4.5-10.4-4.5-16.4c0-10.3,3.9-18.1,11.8-23.4c7.9-5.3,19.8-8,35.7-8
			h17.3c-1.4-8.1-7.9-12.2-19.6-12.2c-4.7,0-9.4,0.7-14.3,2.2c-4.8,1.5-8.9,3.5-12.4,6l-13.7-28.3c6-3.7,13.1-6.6,21.6-8.6
			c8.4-2.1,16.8-3.1,25.2-3.1C547.5,508.8,561.5,512.9,571.1,521.1z M537.3,588.3c2.4-1.6,4.2-4.1,5.3-7.4v-7.2h-10.6
			c-8.7,0-13.1,2.9-13.1,8.7c0,2.4,0.9,4.4,2.8,6c1.8,1.6,4.3,2.4,7.5,2.4C532.1,590.8,534.9,590,537.3,588.3z"/>
		<path class="st0" d="M678.7,508.8v38c-3.4-0.5-6.6-0.8-9.5-0.8c-14.7,0-22.1,7.5-22.1,22.4v46.2h-43v-104h40.9V522
			C652.7,513.2,663.9,508.8,678.7,508.8z"/>
		<path class="st0" d="M778.3,521.1c9.6,8.2,14.4,20.8,14.4,37.7v55.9h-39.9V601c-4.9,10.4-14.8,15.6-29.5,15.6
			c-8.2,0-15.2-1.4-21-4.3c-5.8-2.9-10.1-6.7-13.1-11.6c-3-4.9-4.5-10.4-4.5-16.4c0-10.3,3.9-18.1,11.8-23.4c7.9-5.3,19.8-8,35.7-8
			h17.3c-1.4-8.1-7.9-12.2-19.6-12.2c-4.7,0-9.4,0.7-14.3,2.2c-4.8,1.5-8.9,3.5-12.4,6l-13.7-28.3c6-3.7,13.1-6.6,21.6-8.6
			c8.4-2.1,16.8-3.1,25.2-3.1C754.8,508.8,768.7,512.9,778.3,521.1z M744.5,588.3c2.4-1.6,4.2-4.1,5.3-7.4v-7.2h-10.6
			c-8.7,0-13.1,2.9-13.1,8.7c0,2.4,0.9,4.4,2.8,6c1.8,1.6,4.3,2.4,7.5,2.4C739.4,590.8,742.1,590,744.5,588.3z"/>
	</g>
	<g>
		<path class="st0" d="M894.8,608.8c-2.7,2.3-6,4-9.9,5.2s-8,1.8-12.2,1.8c-10.1,0-18-2.7-23.6-8.2c-5.6-5.4-8.4-13.2-8.4-23.4V529
			h-17.1v-15h17.1v-22.1H859V514h28.9v15H859v54.6c0,5.4,1.4,9.6,4.1,12.5c2.7,2.9,6.6,4.4,11.7,4.4c5.6,0,10.3-1.6,14.3-4.8
			L894.8,608.8z"/>
		<path class="st0" d="M912.5,609.2c-8-4.4-14.2-10.6-18.7-18.3c-4.5-7.8-6.7-16.6-6.7-26.5s2.2-18.7,6.7-26.5
			c4.5-7.8,10.7-13.9,18.7-18.3c8-4.4,17-6.6,27-6.6c10,0,19,2.2,26.9,6.6c7.9,4.4,14.1,10.5,18.6,18.3c4.5,7.8,6.7,16.6,6.7,26.5
			s-2.3,18.7-6.7,26.5c-4.5,7.8-10.7,13.9-18.6,18.3c-7.9,4.4-16.9,6.7-26.9,6.7C929.5,615.9,920.5,613.7,912.5,609.2z M956.9,595.4
			c5.1-3,9.2-7.2,12.1-12.5c2.9-5.4,4.4-11.6,4.4-18.5c0-7-1.5-13.1-4.4-18.5c-2.9-5.4-6.9-9.5-12.1-12.5s-10.9-4.4-17.4-4.4
			c-6.5,0-12.3,1.5-17.4,4.4s-9.2,7.1-12.2,12.5c-3,5.4-4.5,11.6-4.5,18.5c0,7,1.5,13.2,4.5,18.5c3,5.4,7,9.6,12.2,12.5
			c5.1,3,10.9,4.5,17.4,4.5C945.9,599.9,951.7,598.4,956.9,595.4z"/>
		<path class="st0" d="M1093.9,514v100.8h-17.3v-15.2c-3.7,5.2-8.5,9.2-14.5,12.1c-6,2.9-12.6,4.3-19.7,4.3
			c-13.4,0-24-3.7-31.8-11.1c-7.7-7.4-11.6-18.3-11.6-32.8v-58h18.3v55.9c0,9.8,2.3,17.1,7,22.1c4.7,5,11.4,7.5,20.2,7.5
			c9.6,0,17.2-2.9,22.8-8.7c5.6-5.8,8.4-14.1,8.4-24.7V514H1093.9z"/>
		<path class="st0" d="M1143.1,517.6c6.2-3,13.8-4.6,22.6-4.6v17.7c-1-0.1-2.4-0.2-4.2-0.2c-9.9,0-17.7,2.9-23.3,8.8
			c-5.6,5.9-8.5,14.3-8.5,25.2v50.2h-18.3V514h17.5v16.9C1132.2,525.1,1136.9,520.6,1143.1,517.6z"/>
	</g>
	<g>
		<path class="st0" d="M378.5,195.9c-0.8,11.3-10.7,19.7-22,18.9c-11.3-0.9-19.8-10.7-18.9-22c0-0.7,0.1-1.4,0.2-2
			c1.5,0.7,3.3,1.1,5.1,1.1c6.7,0,12.1-5.4,12.1-12.1c0-2-0.5-3.9-1.3-5.5c1.9-0.4,3.8-0.6,5.8-0.4c2.1,0.2,4.1,0.6,6,1.4
			c6.3,2.5,11,7.9,12.5,14.5C378.5,191.7,378.6,193.8,378.5,195.9z"/>
	</g>
	<g>
		<path class="st0" d="M554.5,299.9c0,0.1,0,0.1,0,0.2c0,1.3-0.1,2.5-0.1,3.8c-0.9,17.6-5.6,37-15.9,58.1c-9.2,18.8-23,39-42.5,60.3
			c-3.3,3.6-9.2,1.4-9.4-3.4c-0.3-6.8-1.1-15.7-3.3-25.4c-0.5-2.1-1-4.3-1.7-6.5c-1.3-4.7-3-9.5-5.1-14.3
			c-2.4-5.4-5.3-10.8-8.9-16.1c-7.9-11.5-19-22-34.5-29.6c-3.2-1.6-6.6-3-10.2-4.3c0,0,0,0,0,0c-1.1-0.4-2.3-0.8-3.5-1.2h0
			c-3.3-1.1-6.7-2-10.3-2.9h0c0,0,0.6-2.4,1.8-6.5c1.7-5.8,4.6-15.1,8.6-26c2-5.4,4.4-11.2,7-17.2c14.4-32.8,37.9-70.8,70.7-77.1
			c0.4-0.1,0.7-0.1,1.1-0.1c1.2,0,2.4,0.4,3.3,1.1c0,0,0,0,0,0c0.2,0.1,0.4,0.3,0.6,0.5c0.2,0.2,0.5,0.4,0.8,0.7
			c3.8,3.1,10.5,9,17.9,17.4c7.9,9.1,16.5,21.2,23.1,35.9c4.7,10.4,8.3,22.1,9.9,35.1c0,0.1,0,0.3,0,0.4
			C554.3,288.5,554.6,294.1,554.5,299.9z"/>
	</g>
	<g>
		<path class="st0" d="M378.5,195.9c-0.8,11.3-10.7,19.7-22,18.9c-11.3-0.9-19.8-10.7-18.9-22c0-0.7,0.1-1.4,0.2-2
			c1.5,0.7,3.3,1.1,5.1,1.1c6.7,0,12.1-5.4,12.1-12.1c0-2-0.5-3.9-1.3-5.5c1.9-0.4,3.8-0.6,5.8-0.4c2.1,0.2,4.1,0.6,6,1.4
			c6.3,2.5,11,7.9,12.5,14.5C378.5,191.7,378.6,193.8,378.5,195.9z"/>
	</g>
	<g>
		<path class="st0" d="M467.2,384.2c-9.6,2.3-18.2,3.5-25.5,3.5c-8.5,0-15.3-1.6-20-4.8c-6-4-10.9-8.2-14.6-12.4l-0.1-0.1
			c-2.4-2.7-4.3-5.5-5.7-8.2c-0.2-0.4-0.4-0.9-0.6-1.3c-1.4-3.1-2.1-6.2-2.3-9.3c0-0.3,0-0.7,0-1c0-1.8,0.2-3.6,0.6-5.4
			c0.8-3.4,2.2-6.8,4.4-10.2c1.6-2.6,3.4-4.7,4.9-6.5c1.4-1.5,3.5-2.1,5.5-1.5c1.1,0.3,2.2,0.7,3.3,1c1.1,0.4,2.2,0.7,3.2,1.1
			l0.6,0.2c1.3,0.5,2.6,1,3.9,1.5c15.6,6.5,28.1,16.5,37.1,29.7c3,4.5,5.7,9.3,8,14.4c0.3,0.6,0.5,1.2,0.8,1.8
			C472.1,379.9,470.4,383.4,467.2,384.2z"/>
	</g>
	<g>
		<path class="st0" d="M554.5,299.9c0,0.1,0,0.1,0,0.2c0,1.3-0.1,2.5-0.1,3.8c-0.9,17.6-5.6,37-15.9,58.1c-9.2,18.8-23,39-42.5,60.3
			c-3.3,3.6-9.2,1.4-9.4-3.4c-0.3-6.8-1.1-15.7-3.3-25.4c-0.5-2.1-1-4.3-1.7-6.5c-1.3-4.7-3-9.5-5.1-14.3
			c-2.4-5.4-5.3-10.8-8.9-16.1c-7.9-11.5-19-22-34.5-29.6c-3.2-1.6-6.6-3-10.2-4.3c0,0,0,0,0,0c-1.1-0.4-2.3-0.8-3.5-1.2h0
			c-3.3-1.1-6.7-2-10.3-2.9h0c0,0,0.6-2.4,1.8-6.5c1.7-5.8,4.6-15.1,8.6-26c2-5.4,4.4-11.2,7-17.2c14.4-32.8,37.9-70.8,70.7-77.1
			c0.4-0.1,0.7-0.1,1.1-0.1c1.2,0,2.4,0.4,3.3,1.1c0,0,0,0,0,0c0.2,0.1,0.4,0.3,0.6,0.5c0.2,0.2,0.5,0.4,0.8,0.7
			c3.8,3.1,10.5,9,17.9,17.4c7.9,9.1,16.5,21.2,23.1,35.9c4.7,10.4,8.3,22.1,9.9,35.1c0,0.1,0,0.3,0,0.4
			C554.3,288.5,554.6,294.1,554.5,299.9z"/>
	</g>
</g>
</svg>
