<?xml version="1.0" encoding="utf-8"?>
<!-- Generator: Adobe Illustrator 21.1.0, SVG Export Plug-In . SVG Version: 6.00 Build 0)  -->
<svg version="1.1" id="Layer_1" xmlns="http://www.w3.org/2000/svg" xmlns:xlink="http://www.w3.org/1999/xlink" x="0px" y="0px"
	 viewBox="0 0 800 800" style="enable-background:new 0 0 800 800;" xml:space="preserve">
<style type="text/css">
	.st0{fill:#0066CC;}
</style>
<g>
	<g>
		<g>
			<path class="st0" d="M361,203.1c-22.9,63.5,28.9,89.4,67.6,117.9c9.9,7.3,19.5,13.5,27.7,18.6c5.4,3.3,10.3,6.2,14.3,8.5
				c4.1,2,7,3.7,9.1,5.2c3.1,2.1,5.4,5.2,6.6,8.7l0.9,2.4l4.7,12.9v0.1c1.6,4.1,3.3,8.8,5.2,14c1.9,5.2,3.9,10.9,5.9,17.1
				c10.3,31,22.6,73.9,31.7,125.1c1.4,8,2.8,16.2,4,24.6v0.1c0.7,4.8-0.4,9.7-3.1,13.7c-15.9,23.7-31.8,45.8-46.5,65.2l0,0l-8.9,11
				l0.6-0.1c-13.1,17-25,31.7-34.6,43.3c-13.7,16.5-22.8,26.7-24.5,28.7l-0.1,0.1l-7.8,9.6c-4.1,5.1-11.9,5.1-16.1,0.1l-9-10.9
				l-0.1-0.1c-5.2-5.8-24.1-27.3-48.9-58.9l0,0c-5.6-7.1-11.4-14.7-17.5-22.7c-6.1-8.1-12.4-16.6-18.8-25.5
				c-23.5-32.5-48.6-70.1-70.8-109.5l0,0c-14.4-25.5-27.6-51.7-38.3-77.9L182.4,437c-11.4-21.3-19.8-44.4-24.7-68.8
				c-3.3-16.1-5-32.9-5-49.9c0-139.1,112.7-251.8,251.8-251.8c5.9,0,11.8,0.2,17.6,0.6c5.4,0.4,10.7,0.9,15.9,1.6l0,0
				c45.6,6.2,87.2,25.2,120.9,53.4c4.7,3.8,8.9,8.1,12.8,12.8c0.3,0.3,0.6,0.7,0.8,1c3.3,4.3,6.2,8.9,9,13.4
				c5.9,10.7,9.8,22.6,11.1,35.2c-0.4-1.5-1.2-2.9-2.3-4c-16.3-16.7-34.1-29.2-52.5-37.6l-0.2-0.2c-39.4-18.1-81.3-17.6-116.1-1.6
				c-18.8,8.7-35.6,22-48.6,39.5C367.1,188.3,363.6,195.8,361,203.1z"/>
			<path class="st0" d="M489.2,637.2c-2.8,3.7-5.6,7.4-8.3,10.9l-0.6,0.1L489.2,637.2z"/>
			<path class="st0" d="M559.8,384.1c-9.7,2.3-18.3,3.5-25.6,3.5c-8.5,0-15.3-1.6-20.1-4.8c-6-4-10.9-8.2-14.6-12.4l-0.1-0.1
				c-2.4-2.7-4.3-5.5-5.7-8.3c-0.2-0.4-0.4-0.9-0.6-1.3c-1.4-3.1-2.2-6.2-2.3-9.4c0-0.3,0-0.7,0-1c0-1.8,0.2-3.6,0.6-5.4
				c0.8-3.4,2.2-6.8,4.4-10.2c1.6-2.6,3.4-4.7,5-6.5c1.4-1.5,3.5-2.1,5.5-1.5c1.1,0.3,2.2,0.7,3.3,1c1.1,0.4,2.2,0.7,3.3,1.1
				l0.6,0.2c1.3,0.5,2.6,1,3.9,1.5c15.7,6.5,28.1,16.5,37.3,29.8c3.1,4.5,5.7,9.3,8,14.5c0.3,0.6,0.5,1.2,0.8,1.8
				C564.8,379.8,563,383.3,559.8,384.1z"/>
		</g>
	</g>
	<path class="st0" d="M470.8,195.3c-0.8,11.3-10.7,19.8-22,19c-11.3-0.9-19.8-10.7-19-22.1c0-0.7,0.1-1.4,0.2-2.1
		c1.5,0.7,3.3,1.1,5.1,1.1c6.7,0,12.2-5.5,12.2-12.2c0-2-0.5-3.9-1.3-5.5c1.9-0.4,3.8-0.6,5.8-0.4c2.1,0.2,4.1,0.6,6,1.4
		c6.3,2.5,11,7.9,12.5,14.6C470.8,191.1,471,193.2,470.8,195.3z"/>
	<path class="st0" d="M647.4,299.6c0,0.1,0,0.1,0,0.2c0,1.3-0.1,2.5-0.1,3.8c-0.9,17.6-5.6,37.1-16,58.3
		c-9.3,18.9-23,39.1-42.6,60.5c-3.3,3.6-9.3,1.4-9.4-3.4c-0.3-6.8-1.1-15.7-3.3-25.5c-0.5-2.1-1-4.3-1.7-6.6
		c-1.3-4.7-3.1-9.5-5.2-14.3c-2.4-5.5-5.3-10.9-8.9-16.1c-7.9-11.5-19-22.1-34.6-29.7c-3.2-1.6-6.6-3-10.3-4.3l0,0
		c-1.1-0.4-2.3-0.8-3.5-1.2l0,0c-3.3-1.1-6.7-2-10.3-2.9l0,0c0,0,0.6-2.4,1.8-6.5c1.7-5.8,4.6-15.1,8.7-26.1
		c2.1-5.4,4.4-11.3,7-17.3c14.4-32.9,38-71,70.9-77.3c0.4-0.1,0.7-0.1,1.1-0.1c1.2,0,2.4,0.4,3.3,1.1l0,0c0.2,0.1,0.4,0.3,0.6,0.5
		c0.2,0.2,0.5,0.4,0.8,0.7c3.8,3.1,10.6,9,17.9,17.5c7.9,9.1,16.6,21.2,23.1,36.1c4.7,10.4,8.3,22.2,9.9,35.2c0,0.1,0,0.3,0,0.4
		C647.2,288.2,647.5,293.8,647.4,299.6z"/>
	<path class="st0" d="M470.8,195.3c-0.8,11.3-10.7,19.8-22,19c-11.3-0.9-19.8-10.7-19-22.1c0-0.7,0.1-1.4,0.2-2.1
		c1.5,0.7,3.3,1.1,5.1,1.1c6.7,0,12.2-5.5,12.2-12.2c0-2-0.5-3.9-1.3-5.5c1.9-0.4,3.8-0.6,5.8-0.4c2.1,0.2,4.1,0.6,6,1.4
		c6.3,2.5,11,7.9,12.5,14.6C470.8,191.1,471,193.2,470.8,195.3z"/>
	<path class="st0" d="M559.8,384.1c-9.7,2.3-18.3,3.5-25.6,3.5c-8.5,0-15.3-1.6-20.1-4.8c-6-4-10.9-8.2-14.6-12.4l-0.1-0.1
		c-2.4-2.7-4.3-5.5-5.7-8.3c-0.2-0.4-0.4-0.9-0.6-1.3c-1.4-3.1-2.2-6.2-2.3-9.4c0-0.3,0-0.7,0-1c0-1.8,0.2-3.6,0.6-5.4
		c0.8-3.4,2.2-6.8,4.4-10.2c1.6-2.6,3.4-4.7,5-6.5c1.4-1.5,3.5-2.1,5.5-1.5c1.1,0.3,2.2,0.7,3.3,1c1.1,0.4,2.2,0.7,3.3,1.1l0.6,0.2
		c1.3,0.5,2.6,1,3.9,1.5c15.7,6.5,28.1,16.5,37.3,29.8c3.1,4.5,5.7,9.3,8,14.5c0.3,0.6,0.5,1.2,0.8,1.8
		C564.8,379.8,563,383.3,559.8,384.1z"/>
	<path class="st0" d="M647.4,299.6c0,0.1,0,0.1,0,0.2c0,1.3-0.1,2.5-0.1,3.8c-0.9,17.6-5.6,37.1-16,58.3
		c-9.3,18.9-23,39.1-42.6,60.5c-3.3,3.6-9.3,1.4-9.4-3.4c-0.3-6.8-1.1-15.7-3.3-25.5c-0.5-2.1-1-4.3-1.7-6.6
		c-1.3-4.7-3.1-9.5-5.2-14.3c-2.4-5.5-5.3-10.9-8.9-16.1c-7.9-11.5-19-22.1-34.6-29.7c-3.2-1.6-6.6-3-10.3-4.3l0,0
		c-1.1-0.4-2.3-0.8-3.5-1.2l0,0c-3.3-1.1-6.7-2-10.3-2.9l0,0c0,0,0.6-2.4,1.8-6.5c1.7-5.8,4.6-15.1,8.7-26.1
		c2.1-5.4,4.4-11.3,7-17.3c14.4-32.9,38-71,70.9-77.3c0.4-0.1,0.7-0.1,1.1-0.1c1.2,0,2.4,0.4,3.3,1.1l0,0c0.2,0.1,0.4,0.3,0.6,0.5
		c0.2,0.2,0.5,0.4,0.8,0.7c3.8,3.1,10.6,9,17.9,17.5c7.9,9.1,16.6,21.2,23.1,36.1c4.7,10.4,8.3,22.2,9.9,35.2c0,0.1,0,0.3,0,0.4
		C647.2,288.2,647.5,293.8,647.4,299.6z"/>
</g>
</svg>
