<?xml version="1.0" encoding="utf-8"?>
<!-- Generator: Adobe Illustrator 21.1.0, SVG Export Plug-In . SVG Version: 6.00 Build 0)  -->
<svg version="1.1" id="Layer_1" xmlns="http://www.w3.org/2000/svg" xmlns:xlink="http://www.w3.org/1999/xlink" x="0px" y="0px"
	 viewBox="0 0 30 30" style="enable-background:new 0 0 30 30;" xml:space="preserve">
<g>
	<g>
		<path d="M15,0C8,0,2.4,0.8,2.4,6.3v15.8c0,1.4,0.6,2.6,1.6,3.5v2.8C4,29.3,4.7,30,5.5,30h1.6c0.9,0,1.6-0.7,1.6-1.6v-1.6h12.6v1.6
			c0,0.9,0.7,1.6,1.6,1.6h1.6c0.9,0,1.6-0.7,1.6-1.6v-2.8c1-0.9,1.6-2.1,1.6-3.5V6.3C27.6,0.8,22,0,15,0z M7.9,23.7
			c-1.3,0-2.4-1.1-2.4-2.4c0-1.3,1.1-2.4,2.4-2.4s2.4,1.1,2.4,2.4C10.3,22.6,9.2,23.7,7.9,23.7z M22.1,23.7c-1.3,0-2.4-1.1-2.4-2.4
			c0-1.3,1.1-2.4,2.4-2.4c1.3,0,2.4,1.1,2.4,2.4C24.5,22.6,23.4,23.7,22.1,23.7z M24.5,14.2H5.5V6.3h18.9V14.2z"/>
	</g>
</g>
</svg>
