<?xml version="1.0" encoding="utf-8"?>
<!-- Generator: Adobe Illustrator 21.1.0, SVG Export Plug-In . SVG Version: 6.00 Build 0)  -->
<svg version="1.1" id="Layer_1" xmlns="http://www.w3.org/2000/svg" xmlns:xlink="http://www.w3.org/1999/xlink" x="0px" y="0px"
	 viewBox="0 0 30 30" style="enable-background:new 0 0 30 30; fill: #fff;" xml:space="preserve">
<g>
	<g>
		<path d="M15,0C9,0,4.1,4.9,4.1,10.9c0,7.4,9.7,18.3,10.1,18.8c0.4,0.4,1.1,0.4,1.5,0c0.4-0.5,10.1-11.4,10.1-18.8
			C25.9,4.9,21,0,15,0z M21.6,12h-0.8c-0.3,0-0.6,0.2-0.7,0.5c-0.5,1.7-1.9,3-3.5,3.6c-0.3,0.1-0.5,0.4-0.5,0.7v0.7
			c0,0.4-0.3,0.7-0.7,0.7h-0.8c-0.4,0-0.7-0.3-0.7-0.7v-0.7c0-0.3-0.2-0.6-0.5-0.7c-1.7-0.5-3-1.9-3.5-3.6C9.7,12.2,9.4,12,9.1,12
			H8.4c-0.4,0-0.7-0.3-0.7-0.7v-0.8c0-0.4,0.3-0.7,0.7-0.7h0.7c0.3,0,0.6-0.2,0.7-0.5c0.5-1.6,1.9-2.9,3.5-3.5
			c0.3-0.1,0.5-0.4,0.5-0.7V4.2c0-0.4,0.3-0.7,0.7-0.7h0.8c0.4,0,0.7,0.3,0.7,0.7v0.8c0,0.3,0.2,0.6,0.5,0.7c1.7,0.5,3,1.8,3.5,3.5
			c0.1,0.3,0.4,0.5,0.7,0.5h0.8c0.4,0,0.7,0.3,0.7,0.7v0.8C22.4,11.6,22.1,12,21.6,12z"/>
	</g>
</g>
<path d="M18.1,10.9c0,0.4-0.1,0.7-0.2,1.1c-0.3,0.8-1,1.5-1.8,1.8C15.8,13.9,15.4,14,15,14s-0.8-0.1-1.2-0.2c-0.8-0.3-1.5-1-1.8-1.8
	c-0.1-0.3-0.2-0.7-0.2-1.1c0-0.4,0.1-0.9,0.3-1.3c0.3-0.8,1-1.4,1.7-1.7c0.4-0.1,0.8-0.2,1.2-0.2s0.8,0.1,1.2,0.2
	c0.8,0.3,1.4,0.9,1.7,1.7C18,10,18.1,10.4,18.1,10.9z"/>
</svg>
