<?xml version="1.0" encoding="utf-8"?>
<!-- Generator: Adobe Illustrator 21.1.0, SVG Export Plug-In . SVG Version: 6.00 Build 0)  -->
<svg version="1.1" id="Layer_1" xmlns="http://www.w3.org/2000/svg" xmlns:xlink="http://www.w3.org/1999/xlink" x="0px" y="0px"
	 viewBox="0 0 30 30" style="enable-background:new 0 0 30 30; fill: #fff;" xml:space="preserve">
<g>
	<path d="M8.8,10.7c-0.5,0.1-1,0.3-1.5,0.6l-1-1.5C7.1,9.3,8,9,8.8,8.9V2L0,3.7v24.6l8.8-1.8V10.7z M5.3,15H3.6
		c0-1.4,0.5-2.7,1.3-3.8l1.4,1.1C5.7,13.1,5.3,14,5.3,15z"/>
	<path d="M19.4,19.3V3.4L10.6,2v24.6l8.8,1.5v-7c-1.2-0.2-2.3-0.6-3.1-1.4l1.2-1.3C18,18.8,18.7,19.2,19.4,19.3L19.4,19.3z M11.6,11
		l0.7-1.6c1.2,0.6,2.3,1.6,2.9,2.8L13.6,13C13.2,12.1,12.4,11.4,11.6,11L11.6,11z M14.9,18.1c-0.5-0.9-0.8-2-0.8-3.1
		c0-0.2,0-0.4,0-0.6l1.7-0.3c0,0.3,0.1,0.6,0.1,0.9c0,0.8,0.2,1.5,0.6,2.2L14.9,18.1z"/>
	<path d="M21.2,28l8.8-1.8V1.6l-8.8,1.8V28z M24.7,15C24.7,15,24.7,15,24.7,15c0-0.1,0-1.8,0-1.8h1.8V15c0,0.6-0.1,1.2-0.2,1.7
		l-1.7-0.5C24.6,15.8,24.7,15.4,24.7,15L24.7,15z M23.9,17.5l1.4,1c-0.8,1.1-2,2-3.3,2.3l-0.5-1.7C22.5,18.9,23.3,18.3,23.9,17.5z"
		/>
</g>
</svg>
