<?xml version="1.0" encoding="utf-8"?>
<!-- Generator: Adobe Illustrator 21.1.0, SVG Export Plug-In . SVG Version: 6.00 Build 0)  -->
<svg version="1.1" id="Layer_1" xmlns="http://www.w3.org/2000/svg" xmlns:xlink="http://www.w3.org/1999/xlink" x="0px" y="0px"
	 viewBox="0 0 30 30" style="enable-background:new 0 0 30 30; fill: #fafafa;" xml:space="preserve">
<g>
	<path d="M29.9,8.8c-0.1-1.6-0.3-2.7-0.7-3.6c-0.4-1-1-1.9-1.7-2.7c-0.8-0.8-1.7-1.4-2.7-1.7c-1-0.4-2-0.6-3.6-0.7
		C19.6,0,19.1,0,15,0s-4.6,0-6.2,0.1C7.2,0.2,6.1,0.4,5.2,0.8c-1,0.4-1.9,1-2.7,1.7C1.8,3.3,1.2,4.2,0.8,5.2c-0.4,1-0.6,2-0.7,3.6
		C0,10.4,0,10.9,0,15s0,4.6,0.1,6.2c0.1,1.6,0.3,2.7,0.7,3.6c0.4,1,1,1.9,1.7,2.7c0.8,0.8,1.7,1.4,2.7,1.7c1,0.4,2,0.6,3.6,0.7
		C10.4,30,10.9,30,15,30s4.6,0,6.2-0.1c1.6-0.1,2.7-0.3,3.6-0.7c2-0.8,3.6-2.4,4.4-4.4c0.4-1,0.6-2,0.7-3.6C30,19.6,30,19.1,30,15
		S30,10.4,29.9,8.8z M27.2,21.1c-0.1,1.5-0.3,2.3-0.5,2.8c-0.5,1.3-1.5,2.3-2.8,2.8c-0.5,0.2-1.3,0.5-2.8,0.5
		c-1.6,0.1-2.1,0.1-6.1,0.1s-4.5,0-6.1-0.1c-1.5-0.1-2.3-0.3-2.8-0.5c-0.7-0.2-1.2-0.6-1.7-1.1c-0.5-0.5-0.9-1.1-1.1-1.7
		c-0.2-0.5-0.5-1.3-0.5-2.8C2.7,19.5,2.7,19,2.7,15s0-4.5,0.1-6.1c0.1-1.5,0.3-2.3,0.5-2.8c0.2-0.7,0.6-1.2,1.1-1.7
		c0.5-0.5,1.1-0.9,1.7-1.1C6.7,3.1,7.5,2.9,9,2.8C10.5,2.7,11,2.7,15,2.7c4,0,4.5,0,6.1,0.1c1.5,0.1,2.3,0.3,2.8,0.5
		c0.7,0.2,1.2,0.6,1.7,1.1c0.5,0.5,0.9,1.1,1.1,1.7c0.2,0.5,0.5,1.3,0.5,2.8c0.1,1.6,0.1,2.1,0.1,6.1S27.3,19.5,27.2,21.1z"/>
	<path d="M15,7.3c-4.3,0-7.7,3.5-7.7,7.7s3.5,7.7,7.7,7.7c4.3,0,7.7-3.5,7.7-7.7S19.3,7.3,15,7.3z M15,20c-2.8,0-5-2.2-5-5
		s2.2-5,5-5c2.8,0,5,2.2,5,5S17.8,20,15,20z"/>
	<path d="M24.8,7c0,1-0.8,1.8-1.8,1.8c-1,0-1.8-0.8-1.8-1.8c0-1,0.8-1.8,1.8-1.8C24,5.2,24.8,6,24.8,7z"/>
</g>
</svg>
