<?xml version="1.0" encoding="utf-8"?>
<!-- Generator: Adobe Illustrator 21.1.0, SVG Export Plug-In . SVG Version: 6.00 Build 0)  -->
<svg version="1.1" id="Layer_1" xmlns="http://www.w3.org/2000/svg" xmlns:xlink="http://www.w3.org/1999/xlink" x="0px" y="0px"
	 viewBox="0 0 30 30" style="enable-background:new 0 0 30 30;" xml:space="preserve">
<g>
	<g>
		<path d="M17.9,15L6.7,26.2c-0.3,0.3-0.5,0.7-0.5,1.2c0,0.4,0.2,0.9,0.5,1.2l1,1C8,29.8,8.4,30,8.8,30c0.4,0,0.9-0.2,1.2-0.5
			l13.4-13.4c0.3-0.3,0.5-0.7,0.5-1.2c0-0.4-0.2-0.9-0.5-1.2L10,0.5C9.7,0.2,9.3,0,8.8,0C8.4,0,8,0.2,7.7,0.5l-1,1
			C6,2.1,6,3.1,6.7,3.8L17.9,15z"/>
	</g>
</g>
</svg>
