<?xml version="1.0" encoding="utf-8"?>
<!-- Generator: Adobe Illustrator 21.1.0, SVG Export Plug-In . SVG Version: 6.00 Build 0)  -->
<svg version="1.1" id="Layer_1" xmlns="http://www.w3.org/2000/svg" xmlns:xlink="http://www.w3.org/1999/xlink" x="0px" y="0px"
	 viewBox="0 0 32 32" style="enable-background:new 0 0 32 32; fill: #fff;" xml:space="preserve">
<g>
	<path d="M28.3,32H3.7c-2,0-3.7-1.6-3.7-3.7V9c0-2,1.6-3.7,3.7-3.7h4.7c0.6,0,1,0.4,1,1s-0.4,1-1,1H3.7C2.8,7.3,2,8.1,2,9v19.3
		c0,1,0.8,1.7,1.7,1.7h24.7c0.9,0,1.7-0.7,1.7-1.7V17c0-0.6,0.4-1,1-1s1,0.4,1,1v11.3C32,30.4,30.4,32,28.3,32z"/>
	<path d="M9,21.3c-0.1,0-0.1,0-0.2,0c-0.5-0.1-0.8-0.5-0.8-1v-2c0-7.2,5.8-13,13-13h0.3V1c0-0.4,0.2-0.8,0.6-0.9
		C22.3-0.1,22.7,0,23,0.3l8.7,9c0.4,0.4,0.4,1,0,1.4l-8.7,9c-0.3,0.3-0.7,0.4-1.1,0.2c-0.4-0.2-0.6-0.5-0.6-0.9v-4.3h-1.6
		c-4.2,0-8,2.3-9.8,6.1C9.7,21.1,9.4,21.3,9,21.3z M21,7.3c-5.6,0-10.2,4.2-10.9,9.6c2.4-2.7,5.9-4.3,9.7-4.3h2.6c0.6,0,1,0.4,1,1
		v2.9l6.3-6.5l-6.3-6.5v2.9c0,0.6-0.4,1-1,1H21V7.3z"/>
</g>
</svg>
