<?xml version="1.0" encoding="utf-8"?>
<!-- Generator: Adobe Illustrator 21.1.0, SVG Export Plug-In . SVG Version: 6.00 Build 0)  -->
<svg version="1.1" id="Layer_1" xmlns="http://www.w3.org/2000/svg" xmlns:xlink="http://www.w3.org/1999/xlink" x="0px" y="0px"
	 viewBox="0 0 30 30" style="enable-background:new 0 0 30 30; fill: #fff;" xml:space="preserve">
<g id="surface1">
	<path d="M0.3,15.4l4.1,1.7l-0.9,0.4c-0.2,0.1-0.4,0.4-0.2,0.7l1.2,2.6c0.1,0.1,0.2,0.2,0.3,0.3C4.9,21,5.1,21,5.2,21l9-4.2l0.1-1.2
		l0.2-1.6c0-0.2,0.2-0.4,0.4-0.4c0.1,0,0.3,0.1,0.3,0.2c0,0.1,0,0.1,0,0.2l-1,11.1c0.2,0.2,0.5,0.2,0.8,0.2c0.4-0.1,0.8-0.6,1-1.3
		l4.2-12.5l0.1-0.4c0.1-0.2,0.3-0.3,0.5-0.3c0.2,0.1,0.3,0.3,0.3,0.5c0,0,0,0,0,0l-0.4,1.2l-0.5,1.4l7.1-3.3c2-1,3.1-2.9,2.4-4.4
		c-0.4-0.8-1.2-1.3-2-1.4c-1-0.1-2,0-2.9,0.4l-8,3.7L8.2,5.6c-1.1-0.4-1.9-0.4-2.5,0C5.2,6,4.9,6.7,4.9,7.3c0,0.2,0.1,0.3,0.2,0.4
		l5.8,4l-3.3,1.6L2,11.9c-0.2-0.1-0.5,0-0.6,0.3l-1.4,2.5C-0.1,14.9,0,15.2,0.3,15.4C0.3,15.3,0.3,15.4,0.3,15.4z"/>
</g>
</svg>
